<svg xmlns="http://www.w3.org/2000/svg" xmlns:xlink="http://www.w3.org/1999/xlink" width="1080" zoomAndPan="magnify" viewBox="0 0 810 809.999993" height="1080" preserveAspectRatio="xMidYMid meet" version="1.0"><defs><g/></defs><g fill="#626161" fill-opacity="1"><g transform="translate(11.453748, 585.713544)"><g><path d="M 196.6875 5.28125 C 162.363281 5.28125 132.222656 -0.4375 106.265625 -11.875 C 80.304688 -23.320312 60.285156 -39.382812 46.203125 -60.0625 C 32.117188 -80.75 25.078125 -104.953125 25.078125 -132.671875 L 25.078125 -143.890625 C 25.078125 -151.367188 28.816406 -155.109375 36.296875 -155.109375 L 105.609375 -155.109375 C 113.085938 -155.109375 116.828125 -152.25 116.828125 -146.53125 L 116.828125 -137.296875 C 116.828125 -119.691406 124.859375 -104.835938 140.921875 -92.734375 C 156.984375 -80.628906 177.992188 -74.578125 203.953125 -74.578125 C 227.273438 -74.578125 244.546875 -79.523438 255.765625 -89.421875 C 266.984375 -99.328125 272.59375 -111.539062 272.59375 -126.0625 C 272.59375 -136.625 269.070312 -145.535156 262.03125 -152.796875 C 255 -160.054688 245.539062 -166.4375 233.65625 -171.9375 C 221.769531 -177.4375 202.628906 -185.03125 176.234375 -194.71875 C 146.304688 -204.832031 121.222656 -215.171875 100.984375 -225.734375 C 80.742188 -236.296875 63.582031 -250.707031 49.5 -268.96875 C 35.414062 -287.226562 28.375 -309.78125 28.375 -336.625 C 28.375 -363.03125 35.195312 -386.128906 48.84375 -405.921875 C 62.488281 -425.722656 81.519531 -440.90625 105.9375 -451.46875 C 130.351562 -462.03125 158.1875 -467.3125 189.4375 -467.3125 C 222.875 -467.3125 252.789062 -461.367188 279.1875 -449.484375 C 305.59375 -437.609375 326.164062 -421 340.90625 -399.65625 C 355.65625 -378.3125 363.03125 -353.5625 363.03125 -325.40625 L 363.03125 -318.796875 C 363.03125 -311.316406 359.289062 -307.578125 351.8125 -307.578125 L 282.5 -307.578125 C 275.019531 -307.578125 271.28125 -309.78125 271.28125 -314.1875 L 271.28125 -320.78125 C 271.28125 -339.257812 263.6875 -354.988281 248.5 -367.96875 C 233.320312 -380.957031 212.535156 -387.453125 186.140625 -387.453125 C 165.015625 -387.453125 148.726562 -383.050781 137.28125 -374.25 C 125.84375 -365.445312 120.125 -353.34375 120.125 -337.9375 C 120.125 -326.9375 123.425781 -317.695312 130.03125 -310.21875 C 136.632812 -302.738281 146.644531 -295.914062 160.0625 -289.75 C 173.476562 -283.59375 194.269531 -275.675781 222.4375 -266 C 253.238281 -254.5625 277.660156 -244.550781 295.703125 -235.96875 C 313.742188 -227.382812 329.914062 -214.289062 344.21875 -196.6875 C 358.519531 -179.09375 365.671875 -156.429688 365.671875 -128.703125 C 365.671875 -101.867188 358.738281 -78.328125 344.875 -58.078125 C 331.007812 -37.835938 311.425781 -22.21875 286.125 -11.21875 C 260.820312 -0.21875 231.007812 5.28125 196.6875 5.28125 Z M 196.6875 5.28125 "/></g></g></g><g fill="#e89b2e" fill-opacity="1"><g transform="translate(244.61173, 674.219515)"><g><path d="M 296.359375 0 C 290.640625 0 286.238281 -2.859375 283.15625 -8.578125 L 201.96875 -188.109375 C 201.09375 -190.304688 199.554688 -191.40625 197.359375 -191.40625 L 137.296875 -191.40625 C 134.648438 -191.40625 133.328125 -190.085938 133.328125 -187.453125 L 133.328125 -11.21875 C 133.328125 -3.738281 129.585938 0 122.109375 0 L 51.484375 0 C 44.003906 0 40.265625 -3.738281 40.265625 -11.21875 L 40.265625 -451.46875 C 40.265625 -458.945312 44.003906 -462.6875 51.484375 -462.6875 L 236.953125 -462.6875 C 265.117188 -462.6875 289.867188 -456.851562 311.203125 -445.1875 C 332.546875 -433.53125 349.046875 -417.140625 360.703125 -396.015625 C 372.367188 -374.898438 378.203125 -350.703125 378.203125 -323.421875 C 378.203125 -293.503906 370.722656 -267.765625 355.765625 -246.203125 C 340.804688 -224.640625 320.125 -209.457031 293.71875 -200.65625 C 292.394531 -200.21875 291.515625 -199.445312 291.078125 -198.34375 C 290.640625 -197.238281 290.859375 -196.25 291.734375 -195.375 L 378.859375 -13.203125 C 380.179688 -11.441406 380.84375 -9.460938 380.84375 -7.265625 C 380.84375 -5.054688 379.960938 -3.289062 378.203125 -1.96875 C 376.441406 -0.65625 374.023438 0 370.953125 0 Z M 137.296875 -382.171875 C 134.648438 -382.171875 133.328125 -380.847656 133.328125 -378.203125 L 133.328125 -267.3125 C 133.328125 -264.675781 134.648438 -263.359375 137.296875 -263.359375 L 223.09375 -263.359375 C 241.570312 -263.359375 256.640625 -268.75 268.296875 -279.53125 C 279.960938 -290.3125 285.796875 -304.503906 285.796875 -322.109375 C 285.796875 -339.703125 279.960938 -354.109375 268.296875 -365.328125 C 256.640625 -376.554688 241.570312 -382.171875 223.09375 -382.171875 Z M 137.296875 -382.171875 "/></g></g></g><g fill="#e89b2e" fill-opacity="1"><g transform="translate(649.879585, 674.219515)"><g><path d="M 87.125 2.640625 C 69.96875 2.640625 55.664062 -2.96875 44.21875 -14.1875 C 32.78125 -25.40625 27.0625 -38.9375 27.0625 -54.78125 C 27.0625 -70.1875 33.222656 -83.5 45.546875 -94.71875 C 57.867188 -105.9375 71.726562 -111.546875 87.125 -111.546875 C 103.40625 -111.546875 117.707031 -105.9375 130.03125 -94.71875 C 142.351562 -83.5 148.515625 -70.1875 148.515625 -54.78125 C 148.515625 -38.9375 142.570312 -25.40625 130.6875 -14.1875 C 118.8125 -2.96875 104.289062 2.640625 87.125 2.640625 Z M 87.125 2.640625 "/></g></g></g><path stroke-linecap="butt" transform="matrix(7.099652, 0, 0, 7.099652, 11.453748, -138.45094)" fill="none" stroke-linejoin="miter" d="M 27.71419 102.749009 C 22.871853 102.749009 18.619883 101.946813 14.957732 100.342972 C 11.310986 98.723724 8.496698 96.461839 6.514316 93.556217 C 4.531935 90.635739 3.541019 87.22393 3.541019 83.31969 L 3.541019 81.730703 C 3.541019 80.671562 4.063162 80.142267 5.106897 80.142267 L 14.866949 80.142267 C 15.926089 80.142267 16.455935 80.550518 16.455935 81.367569 L 16.455935 82.661647 C 16.455935 85.143062 17.583301 87.238786 19.838033 88.948817 C 22.107621 90.643442 25.073215 91.490755 28.735366 91.490755 C 32.018978 91.490755 34.447574 90.794748 36.021155 89.402734 C 37.610141 88.010721 38.404635 86.292987 38.404635 84.250633 C 38.404635 82.75243 37.90505 81.496317 36.906432 80.482292 C 35.923219 79.453413 34.591177 78.553281 32.911958 77.781346 C 31.232188 77.009961 28.538394 75.943117 24.831126 74.581365 C 20.609418 73.143684 17.068861 71.683445 14.208906 70.200648 C 11.363806 68.717301 8.950615 66.689803 6.968234 64.117603 C 4.985852 61.544854 3.994937 58.367431 3.994937 54.584235 C 3.994937 50.862112 4.955591 47.608761 6.87745 44.824184 C 8.799309 42.040156 11.477698 39.906469 14.912615 38.423672 C 18.362388 36.925469 22.289188 36.176643 26.692462 36.176643 C 31.398349 36.176643 35.605202 37.016252 39.31247 38.696022 C 43.035143 40.360386 45.932513 42.698199 48.005678 45.70946 C 50.093698 48.720722 51.137984 52.208459 51.137984 56.173222 L 51.137984 57.103615 C 51.137984 58.1479 50.608688 58.670043 49.548997 58.670043 L 39.788945 58.670043 C 38.729805 58.670043 38.200509 58.359729 38.200509 57.73965 L 38.200509 56.808706 C 38.200509 54.206246 37.133666 51.996631 34.999978 50.18096 C 32.866291 48.349885 29.93811 47.434347 26.215987 47.434347 C 23.234987 47.434347 20.935138 48.054976 19.31589 49.295684 C 17.712048 50.521536 16.909852 52.223864 16.909852 54.402668 C 16.909852 55.945988 17.371473 57.247768 18.294163 58.306909 C 19.23281 59.36605 20.647382 60.326705 22.53898 61.189423 C 24.430578 62.052141 27.358208 63.164102 31.322971 64.525854 C 35.665724 66.145102 39.108344 67.559674 41.650282 68.770671 C 44.192771 69.981117 46.470061 71.827048 48.482153 74.308464 C 50.494796 76.775024 51.501118 79.9607 51.501118 83.864391 C 51.501118 87.647587 50.525057 90.969162 48.572937 93.828568 C 46.621367 96.673667 43.859898 98.87503 40.28853 100.433755 C 36.732568 101.977075 32.541121 102.749009 27.71419 102.749009 Z M 27.71419 102.749009 " stroke="#626161" stroke-width="0.639211" stroke-opacity="1" stroke-miterlimit="4"/></svg>